<svg width="501" height="501" viewBox="0 0 501 501" fill="none" xmlns="http://www.w3.org/2000/svg">
<rect x="0.326721" y="0.5" width="500" height="500" rx="150" fill="url(#paint0_linear_2_21)"/>
<path d="M118.199 325.403L151.921 161.491C155.269 145.22 169.592 133.544 186.203 133.544L314.454 133.544C331.066 133.544 345.389 145.221 348.737 161.492L382.456 325.404C386.922 347.114 370.339 367.456 348.174 367.456H152.481C130.315 367.456 113.732 347.114 118.199 325.403Z" stroke="white" stroke-width="40"/>
<path d="M127.626 279.58L146.952 190.225C150.436 174.118 164.682 162.624 181.161 162.624L319.497 162.624C335.976 162.624 350.223 174.119 353.706 190.226L373.03 279.58" stroke="white" stroke-width="40"/>
<defs>
<linearGradient id="paint0_linear_2_21" x1="0.326721" y1="0.5" x2="500.327" y2="500.5" gradientUnits="userSpaceOnUse">
<stop stop-color="#8CB27F"/>
<stop offset="1" stop-color="#5C7DD1"/>
</linearGradient>
</defs>
</svg>
